<?xml version="1.0" standalone="no"?>
<!DOCTYPE svg PUBLIC "-//W3C//DTD SVG 20010904//EN"
 "http://www.w3.org/TR/2001/REC-SVG-20010904/DTD/svg10.dtd">
<svg version="1.0" xmlns="http://www.w3.org/2000/svg"
 width="230.000000pt" height="268.000000pt" viewBox="0 0 230.000000 268.000000"
 preserveAspectRatio="xMidYMid meet">

<g transform="translate(0.000000,268.000000) scale(0.100000,-0.100000)"
fill="#000000" stroke="none">
<path d="M980 2613 c-35 -5 -109 -23 -147 -36 l-33 -11 0 -510 c0 -314 -4
-506 -9 -501 -5 6 -94 179 -197 385 -103 206 -189 377 -191 380 -11 13 -144
-163 -196 -260 -42 -77 -90 -217 -108 -315 -16 -88 -16 -315 1 -386 42 -187
105 -327 206 -462 36 -48 69 -87 75 -87 5 0 10 148 11 357 l3 357 74 -185 c41
-101 82 -202 91 -224 10 -22 27 -65 40 -95 47 -118 133 -327 145 -355 7 -16
22 -51 33 -77 22 -50 17 -47 137 -77 22 -5 68 -12 103 -16 l62 -7 0 1066 0
1066 -37 -1 c-21 -1 -49 -3 -63 -6z"/>
<path d="M1150 1556 l0 -1066 29 0 c55 0 183 21 247 41 l64 20 0 369 0 370
328 0 329 0 11 38 c29 100 37 280 16 355 -5 16 -30 17 -350 17 l-344 0 0 150
0 150 295 0 c180 0 295 4 295 10 0 41 -117 216 -204 304 -167 170 -399 279
-638 301 l-78 7 0 -1066z"/>
<path d="M120 350 c0 -118 2 -140 15 -140 11 0 15 11 15 40 0 46 17 54 26 13
10 -49 23 -73 39 -73 13 0 15 18 13 133 -3 109 -6 132 -18 132 -10 0 -14 -8
-12 -23 1 -13 -2 -31 -7 -40 -8 -15 -11 -13 -20 11 -6 16 -11 37 -11 47 0 11
-9 24 -20 30 -20 10 -20 8 -20 -130z"/>
<path d="M309 470 c-1 -5 -2 -16 -3 -22 -1 -7 -11 -12 -24 -10 -22 3 -22 2
-22 -113 0 -115 0 -117 29 -146 34 -33 40 -34 67 -15 16 13 19 29 22 131 4
109 3 117 -16 122 -20 5 -38 43 -20 43 5 0 6 5 3 10 -3 6 -13 10 -21 10 -8 0
-15 -4 -15 -10z m21 -156 c0 -87 -9 -117 -24 -78 -8 21 -8 169 0 177 17 17 24
-12 24 -99z"/>
<path d="M2068 473 c-16 -4 -18 -19 -18 -139 0 -74 4 -134 9 -134 4 0 22 5 40
11 27 9 31 16 31 45 0 24 -5 34 -15 34 -12 0 -15 15 -17 68 0 37 0 77 1 89 2
25 -6 31 -31 26z"/>
<path d="M1936 428 c-23 -20 -26 -33 -32 -113 -7 -112 3 -145 45 -145 20 0 36
9 50 26 18 23 21 41 21 121 0 52 -5 103 -10 114 -14 25 -43 24 -74 -3z m39
-118 c0 -42 -4 -65 -12 -67 -10 -4 -13 14 -13 67 0 53 3 71 13 68 8 -3 12 -26
12 -68z"/>
<path d="M410 274 c0 -111 2 -133 16 -138 25 -9 26 -8 24 32 -1 20 -1 51 0 67
2 30 2 30 10 5 4 -14 8 -44 9 -67 1 -31 5 -43 16 -43 8 0 15 7 15 16 0 9 6 35
13 58 l12 41 5 -65 c4 -51 9 -66 23 -68 15 -3 17 8 17 131 l0 135 -27 5 c-38
7 -43 2 -43 -44 0 -55 -17 -49 -25 10 -6 45 -9 49 -36 53 l-29 5 0 -133z"/>
<path d="M1541 391 c-6 -10 -8 -21 -5 -23 3 -3 -7 -8 -21 -12 -25 -6 -25 -7
-25 -117 0 -130 7 -149 55 -149 30 0 37 5 50 36 10 24 15 70 15 135 0 98 0
100 -26 109 -22 9 -24 13 -14 25 10 12 9 15 -3 15 -9 0 -21 -8 -26 -19z m19
-140 c0 -50 -4 -93 -10 -96 -6 -4 -10 28 -10 89 0 57 4 96 10 96 6 0 10 -36
10 -89z"/>
<path d="M1795 401 l-30 -6 -3 -133 c-2 -107 0 -132 11 -132 23 0 81 22 89 34
13 19 9 221 -4 234 -13 13 -17 13 -63 3z m35 -60 c0 -22 -16 -36 -24 -22 -8
12 3 41 15 41 5 0 9 -9 9 -19z m0 -105 c0 -14 -5 -28 -10 -31 -13 -8 -24 20
-16 40 9 24 26 17 26 -9z"/>
<path d="M1670 377 c-39 -11 -45 -15 -42 -36 1 -13 9 -29 17 -35 10 -8 15 -36
17 -101 3 -82 5 -90 23 -90 19 0 20 7 22 99 1 59 6 102 13 106 14 9 18 62 5
66 -5 1 -30 -3 -55 -9z"/>
<path d="M600 240 c0 -96 3 -132 13 -134 6 -3 24 -7 40 -10 25 -6 27 -4 27 28
0 26 -5 36 -20 41 -25 8 -26 31 -2 37 23 6 22 46 -1 63 -22 16 -21 22 3 28 14
4 20 14 20 35 0 32 -14 42 -56 42 l-24 0 0 -130z"/>
<path d="M710 223 c0 -126 1 -133 20 -133 16 0 20 7 20 34 0 40 8 66 21 66 5
0 9 -25 9 -55 0 -48 2 -55 20 -55 19 0 20 7 20 118 0 64 -4 123 -9 131 -5 8
-30 17 -55 21 l-46 7 0 -134z m70 46 c0 -5 -7 -9 -15 -9 -15 0 -20 12 -9 23 8
8 24 -1 24 -14z"/>
<path d="M1393 343 c-15 -6 -19 -258 -4 -267 24 -15 41 7 41 55 0 35 4 51 15
55 18 7 21 75 4 72 -6 -2 -14 3 -16 10 -3 7 4 12 16 12 17 0 21 6 21 35 0 33
-2 35 -32 34 -18 0 -39 -3 -45 -6z"/>
<path d="M870 330 c-23 -14 -28 -202 -6 -235 21 -32 80 -35 96 -6 17 32 13
203 -6 229 -16 23 -57 29 -84 12z m50 -131 c0 -44 -4 -68 -10 -64 -5 3 -10 35
-10 71 0 36 4 64 10 64 6 0 10 -30 10 -71z"/>
<path d="M999 303 c-11 -30 -4 -90 13 -110 7 -9 7 -13 -1 -13 -6 0 -11 -18
-11 -44 0 -35 5 -48 22 -60 50 -36 88 -9 88 62 0 26 -7 57 -15 69 -13 19 -13
22 0 27 17 6 20 48 5 77 -8 14 -21 19 -51 19 -34 0 -41 -4 -50 -27z m61 -43
c0 -5 -2 -10 -4 -10 -3 0 -8 5 -11 10 -3 6 -1 10 4 10 6 0 11 -4 11 -10z m3
-114 c6 -16 -2 -28 -14 -20 -12 7 -11 34 0 34 5 0 11 -6 14 -14z"/>
<path d="M1202 288 c-5 -7 -13 -54 -16 -104 -6 -79 -5 -94 10 -108 11 -12 24
-15 38 -11 12 4 35 6 51 6 28 -1 30 1 29 36 -3 71 -3 73 -19 67 -12 -5 -15 4
-15 48 0 30 -5 59 -12 66 -16 16 -53 15 -66 0z"/>
</g>
</svg>
